<svg width="16" height="16" viewBox="0 0 16 16" fill="none" xmlns="http://www.w3.org/2000/svg">
<g id="ic:baseline-apple">
<path id="Vector" d="M11.3671 13.52C10.7138 14.1533 10.0004 14.0533 9.31377 13.7533C8.5871 13.4467 7.92043 13.4333 7.15377 13.7533C6.19377 14.1667 5.6871 14.0467 5.11377 13.52C1.86043 10.1667 2.34044 5.06 6.03377 4.87333C6.93377 4.92 7.56044 5.36667 8.0871 5.40667C8.87377 5.24667 9.6271 4.78667 10.4671 4.84667C11.4738 4.92667 12.2338 5.32667 12.7338 6.04667C10.6538 7.29333 11.1471 10.0333 13.0538 10.8C12.6738 11.8 12.1804 12.7933 11.3604 13.5267L11.3671 13.52ZM8.02043 4.83333C7.92043 3.34667 9.1271 2.12 10.5138 2C10.7071 3.72 8.95377 5 8.02043 4.83333Z" fill="white"/>
</g>
</svg>
